HIERARCHY
ROOT pelvis
{
	OFFSET 0.003123 -0.351407 0.012037
	CHANNELS 6 Xposition Yposition Zposition Zrotation Yrotation Xrotation 
	JOINT left_hip
	{
		OFFSET 0.058189 -0.092763 -0.026001
		CHANNELS 3 Zrotation Yrotation Xrotation
		JOINT left_knee
		{
			OFFSET 0.054695 -0.378753 -0.009396
			CHANNELS 3 Zrotation Yrotation Xrotation
			JOINT left_ankle
			{
				OFFSET -0.043453 -0.403059 -0.031876
				CHANNELS 3 Zrotation Yrotation Xrotation
				JOINT left_foot
				{
					OFFSET 0.047257 -0.057997 0.118216
					CHANNELS 3 Zrotation Yrotation Xrotation
					End Site
					{
						OFFSET 0.000000 0.000000 0.000000
					}
				}
			}
		}
	}
	JOINT right_hip
	{
		OFFSET -0.063267 -0.103908 -0.021250
		CHANNELS 3 Zrotation Yrotation Xrotation
		JOINT right_knee
		{
			OFFSET -0.044210 -0.362380 -0.016824
			CHANNELS 3 Zrotation Yrotation Xrotation
			JOINT right_ankle
			{
				OFFSET 0.015417 -0.410728 -0.020192
				CHANNELS 3 Zrotation Yrotation Xrotation
				JOINT right_foot
				{
					OFFSET -0.038812 -0.058328 0.119049
					CHANNELS 3 Zrotation Yrotation Xrotation
					End Site
					{
						OFFSET 0.000000 0.000000 0.000000
					}
				}
			}
		}
	}
	JOINT spine_1
	{
		OFFSET -0.002763 0.109891 -0.027618
		CHANNELS 3 Zrotation Yrotation Xrotation
		JOINT spine_2
		{
			OFFSET 0.009448 0.131853 -0.005940
			CHANNELS 3 Zrotation Yrotation Xrotation
			JOINT spine_3
			{
				OFFSET -0.011330 0.052235 0.028447
				CHANNELS 3 Zrotation Yrotation Xrotation
				JOINT neck
				{
					OFFSET -0.012164 0.165167 -0.031615
					CHANNELS 3 Zrotation Yrotation Xrotation
					JOINT head
					{
						OFFSET 0.024783 0.160452 0.020737
						CHANNELS 3 Zrotation Yrotation Xrotation
						End Site
						{
							OFFSET 0.000000 0.000000 0.000000
						}
					}
				}
				JOINT left_collar
				{
					OFFSET 0.046364 0.084944 -0.007220
					CHANNELS 3 Zrotation Yrotation Xrotation
					JOINT left_shoulder
					{
						OFFSET 0.119239 0.057728 -0.015461
						CHANNELS 3 Zrotation Yrotation Xrotation
						JOINT left_elbow
						{
							OFFSET 0.254123 -0.072151 -0.042459
							CHANNELS 3 Zrotation Yrotation Xrotation
							JOINT left_wrist
							{
								OFFSET 0.251987 0.023221 -0.002472
								CHANNELS 3 Zrotation Yrotation Xrotation
								JOINT left_index_1
								{
									OFFSET 0.101902 -0.008688 0.019351
									CHANNELS 3 Zrotation Yrotation Xrotation
									JOINT left_index_2
									{
										OFFSET 0.030149 -0.011154 0.001151
										CHANNELS 3 Zrotation Yrotation Xrotation
										JOINT left_index_3
										{
											OFFSET 0.006504 -0.021577 -0.002433
											CHANNELS 3 Zrotation Yrotation Xrotation
											End Site
											{
												OFFSET 0.000000 0.000000 0.000000
											}
										}
									}
								}
								JOINT left_middle_1
								{
									OFFSET 0.109398 -0.006328 -0.003981
									CHANNELS 3 Zrotation Yrotation Xrotation
									JOINT left_middle_2
									{
										OFFSET 0.026472 -0.015218 -0.004641
										CHANNELS 3 Zrotation Yrotation Xrotation
										JOINT left_middle_3
										{
											OFFSET 0.005022 -0.023347 -0.001911
											CHANNELS 3 Zrotation Yrotation Xrotation
											End Site
											{
												OFFSET 0.000000 0.000000 0.000000
											}
										}
									}
								}
								JOINT left_pinky_1
								{
									OFFSET 0.084047 -0.014539 -0.043750
									CHANNELS 3 Zrotation Yrotation Xrotation
									JOINT left_pinky_2
									{
										OFFSET 0.012124 -0.014448 -0.005375
										CHANNELS 3 Zrotation Yrotation Xrotation
										JOINT left_pinky_3
										{
											OFFSET 0.003798 -0.018853 0.000167
											CHANNELS 3 Zrotation Yrotation Xrotation
											End Site
											{
												OFFSET 0.000000 0.000000 0.000000
											}
										}
									}
								}
								JOINT left_ring_1
								{
									OFFSET 0.097444 -0.009268 -0.027345
									CHANNELS 3 Zrotation Yrotation Xrotation
									JOINT left_ring_2
									{
										OFFSET 0.023561 -0.016057 -0.001895
										CHANNELS 3 Zrotation Yrotation Xrotation
										JOINT left_ring_3
										{
											OFFSET 0.004257 -0.023548 0.000814
											CHANNELS 3 Zrotation Yrotation Xrotation
											End Site
											{
												OFFSET 0.000000 0.000000 0.000000
											}
										}
									}
								}
								JOINT left_thumb_1
								{
									OFFSET 0.040636 -0.017977 0.025611
									CHANNELS 3 Zrotation Yrotation Xrotation
									JOINT left_thumb_2
									{
										OFFSET 0.021637 -0.017639 0.011623
										CHANNELS 3 Zrotation Yrotation Xrotation
										JOINT left_thumb_3
										{
											OFFSET 0.024002 -0.008356 0.006548
											CHANNELS 3 Zrotation Yrotation Xrotation
											End Site
											{
												OFFSET 0.000000 0.000000 0.000000
											}
										}
									}
								}
							}
						}
					}
				}
				JOINT right_collar
				{
					OFFSET -0.047695 0.084339 -0.013400
					CHANNELS 3 Zrotation Yrotation Xrotation
					JOINT right_shoulder
					{
						OFFSET -0.102578 0.053524 -0.012669
						CHANNELS 3 Zrotation Yrotation Xrotation
						JOINT right_elbow
						{
							OFFSET -0.271150 -0.036492 -0.026467
							CHANNELS 3 Zrotation Yrotation Xrotation
							JOINT right_wrist
							{
								OFFSET -0.249267 -0.004533 -0.015325
								CHANNELS 3 Zrotation Yrotation Xrotation
								JOINT right_index_1
								{
									OFFSET -0.099881 -0.011783 0.019600
									CHANNELS 3 Zrotation Yrotation Xrotation
									JOINT right_index_2
									{
										OFFSET -0.030148 -0.011154 0.001151
										CHANNELS 3 Zrotation Yrotation Xrotation
										JOINT right_index_3
										{
											OFFSET -0.006505 -0.021577 -0.002432
											CHANNELS 3 Zrotation Yrotation Xrotation
											End Site
											{
												OFFSET 0.000000 0.000000 0.000000
											}
										}
									}
								}
								JOINT right_middle_1
								{
									OFFSET -0.107376 -0.009422 -0.003734
									CHANNELS 3 Zrotation Yrotation Xrotation
									JOINT right_middle_2
									{
										OFFSET -0.026472 -0.015218 -0.004641
										CHANNELS 3 Zrotation Yrotation Xrotation
										JOINT right_middle_3
										{
											OFFSET -0.005022 -0.023347 -0.001911
											CHANNELS 3 Zrotation Yrotation Xrotation
											End Site
											{
												OFFSET 0.000000 0.000000 0.000000
											}
										}
									}
								}
								JOINT right_pinky_1
								{
									OFFSET -0.082027 -0.017634 -0.043503
									CHANNELS 3 Zrotation Yrotation Xrotation
									JOINT right_pinky_2
									{
										OFFSET -0.012123 -0.014448 -0.005374
										CHANNELS 3 Zrotation Yrotation Xrotation
										JOINT right_pinky_3
										{
											OFFSET -0.003798 -0.018852 0.000167
											CHANNELS 3 Zrotation Yrotation Xrotation
											End Site
											{
												OFFSET 0.000000 0.000000 0.000000
											}
										}
									}
								}
								JOINT right_ring_1
								{
									OFFSET -0.095423 -0.012362 -0.027099
									CHANNELS 3 Zrotation Yrotation Xrotation
									JOINT right_ring_2
									{
										OFFSET -0.023561 -0.016057 -0.001895
										CHANNELS 3 Zrotation Yrotation Xrotation
										JOINT right_ring_3
										{
											OFFSET -0.004257 -0.023548 0.000816
											CHANNELS 3 Zrotation Yrotation Xrotation
											End Site
											{
												OFFSET 0.000000 0.000000 0.000000
											}
										}
									}
								}
								JOINT right_thumb_1
								{
									OFFSET -0.038613 -0.021074 0.025861
									CHANNELS 3 Zrotation Yrotation Xrotation
									JOINT right_thumb_2
									{
										OFFSET -0.021636 -0.017639 0.011623
										CHANNELS 3 Zrotation Yrotation Xrotation
										JOINT right_thumb_3
										{
											OFFSET -0.024004 -0.008353 0.006547
											CHANNELS 3 Zrotation Yrotation Xrotation
											End Site
											{
												OFFSET 0.000000 0.000000 0.000000
											}
										}
									}
								}
							}
						}
					}
				}
			}
		}
	}
}
MOTION
Frames: 5
Frame Time: 0.050000
0.037951 0.947548 -0.006012 -1.668368 -1.531816 -9.213134 2.096509 0.868770 6.919006 -3.817131 -0.201328 7.131714 7.550403 10.697514 -7.572227 0.000000 0.000000 0.000000 -6.698581 -0.004245 3.668528 5.671077 -0.390322 11.555891 9.143150 20.407425 -0.725617 0.000000 0.000000 0.000000 -5.115516 -0.524221 6.633541 -4.788204 -0.283861 -10.975421 12.407416 -2.370728 22.594361 4.988433 0.453561 -7.103182 0.000000 0.000000 0.000000 -6.039394 -0.531961 -0.142655 -45.100417 -7.354872 -6.933350 -6.651159 -30.527351 5.011225 0.371756 0.782804 -2.527404 -8.478925 -0.046566 0.362719 17.161818 -0.836753 6.024781 0.000000 0.000000 0.000000 -3.021676 -4.565977 -2.994269 -0.704787 -1.292336 -5.950335 0.000000 0.000000 0.000000 15.594423 -8.891012 -7.223033 -15.024453 -3.200794 -8.124414 0.000000 0.000000 0.000000 -0.635100 -2.956125 -2.089438 -4.531550 -5.215539 -20.271694 0.000000 0.000000 0.000000 25.250165 24.812863 16.519126 -18.894596 -13.187984 2.463411 0.000000 0.000000 0.000000 4.894447 -2.062741 -1.843205 44.877624 6.365939 -4.313662 13.563880 19.741990 1.170558 9.007095 -0.741262 6.194704 15.155317 -5.560768 1.745158 -15.219160 -1.882634 18.194129 0.000000 0.000000 0.000000 12.543303 -2.529695 -1.163517 -2.757521 -0.226030 2.332904 0.000000 0.000000 0.000000 -8.756208 7.944629 -5.961122 10.772774 -1.515883 5.048335 0.000000 0.000000 0.000000 11.312622 -3.335895 0.668112 2.482777 0.411126 -2.408969 0.000000 0.000000 0.000000 -21.603431 -31.604545 31.500622 9.913176 19.671147 -2.174895 0.000000 0.000000 0.000000 
0.044783 0.957863 0.004547 0.858254 0.715829 -9.802279 -0.236566 0.451174 3.046272 -3.935416 -0.631937 12.457441 5.709020 10.279234 -1.378131 0.000000 0.000000 0.000000 -6.749388 0.148656 0.480692 4.474195 -0.276564 15.753036 5.084523 4.905589 7.011153 0.000000 0.000000 0.000000 -10.397308 -0.493256 9.889768 -4.645608 -1.041446 -14.171965 14.169708 -1.360069 24.923655 5.883159 0.818258 -9.364562 0.000000 0.000000 0.000000 -5.164217 0.587539 -0.813500 -44.001006 -14.091389 -6.561356 -11.762981 -29.187233 6.050283 -4.068591 -0.234766 2.404981 -27.736076 12.697894 2.570525 -41.691279 9.174515 3.802820 0.000000 0.000000 0.000000 -37.299861 9.309223 -3.919894 -30.798538 -4.340555 -13.682067 0.000000 0.000000 0.000000 -46.798737 -17.568432 -25.137892 2.425401 1.304928 7.093800 0.000000 0.000000 0.000000 -45.785307 -5.401068 -4.701316 -18.685272 -7.432883 -18.474087 0.000000 0.000000 0.000000 -0.750199 33.598871 33.795826 34.645766 -14.797823 -20.870324 0.000000 0.000000 0.000000 7.215477 -1.456966 -1.656520 44.544149 11.166412 -2.764991 14.912490 15.942005 0.930661 15.416329 -3.849867 7.942186 20.158187 -18.047909 4.920338 15.050727 -12.009556 14.400380 0.000000 0.000000 0.000000 27.943583 -3.116209 -4.166556 15.340491 -3.267498 2.067726 0.000000 0.000000 0.000000 4.760309 16.561554 -21.371768 7.091223 -1.996119 8.874792 0.000000 0.000000 0.000000 25.982755 6.875949 -5.628395 14.894839 -0.681855 1.815216 0.000000 0.000000 0.000000 -35.595430 -43.582083 60.273155 -2.968742 32.027635 -12.185483 0.000000 0.000000 0.000000 
0.045254 0.950933 0.016426 2.012747 -0.376561 -8.336588 -1.003539 0.222775 1.376656 -1.738921 -0.882190 10.945889 3.287620 8.034339 2.425217 0.000000 0.000000 0.000000 -6.706049 0.324021 -1.782975 3.797609 -0.099398 17.336154 1.712386 0.155410 4.797718 0.000000 0.000000 0.000000 -8.254230 -0.482611 14.172002 -6.260949 -0.818136 -15.645392 10.630760 -1.607345 24.780810 5.269464 1.054136 -10.364576 0.000000 0.000000 0.000000 -3.444002 -3.872941 1.755058 -45.279306 -14.891488 -6.356843 -9.450985 -32.285989 6.141195 -4.475803 0.802245 1.235317 -68.395480 40.366362 -6.683727 -47.227127 0.214129 -9.126895 0.000000 0.000000 0.000000 -77.111082 35.138151 -14.981803 -6.052127 -12.497567 -41.871144 0.000000 0.000000 0.000000 -96.545824 22.303219 -22.162921 15.200859 -3.033497 -39.272196 0.000000 0.000000 0.000000 -91.135630 18.579432 -9.049604 9.666692 -7.591475 -58.971990 0.000000 0.000000 0.000000 -22.884066 34.673896 34.650368 75.789410 11.219401 -16.435133 0.000000 0.000000 0.000000 4.939830 -0.307422 -0.742270 53.629210 14.654383 -1.938812 12.028099 16.020252 0.735497 13.457241 3.450039 6.817942 25.534793 -34.124053 7.781638 32.714884 -15.521285 9.794311 0.000000 0.000000 0.000000 41.200670 -12.733051 -4.495577 40.267743 -3.548114 -4.026245 0.000000 0.000000 0.000000 21.281676 29.624652 -36.484596 38.001886 -4.556434 10.560112 0.000000 0.000000 0.000000 45.156977 9.103905 -6.674830 31.317100 5.706905 -10.869787 0.000000 0.000000 0.000000 -27.844092 -47.666951 65.106250 -23.172129 30.147867 -23.290606 0.000000 0.000000 0.000000 
0.040543 0.947548 -0.002052 0.853850 -1.371741 -4.568444 1.307663 0.017796 0.269741 -0.619541 -0.347336 3.902793 0.195406 2.556549 2.871531 0.000000 0.000000 0.000000 -4.972558 0.443199 -3.069262 4.377106 -0.198455 11.875396 0.320189 0.292707 0.519080 0.000000 0.000000 0.000000 -3.568304 -0.588759 9.802169 -6.598000 -1.101300 -17.045714 7.735547 -1.555986 25.916774 5.511834 0.566381 -8.153381 0.000000 0.000000 0.000000 -7.238082 -2.907777 1.111207 -44.786267 -13.792023 -6.520867 -6.854891 -30.918431 5.165211 -3.812168 -2.630969 4.513800 -20.468470 14.398061 3.654722 -44.866253 16.734988 10.254648 0.000000 0.000000 0.000000 -39.498142 20.051271 -2.595470 -44.866998 2.286442 -4.150501 0.000000 0.000000 0.000000 -52.592235 8.833471 -14.010379 -25.346551 -8.696214 -17.124200 0.000000 0.000000 0.000000 -45.979049 10.817508 -1.819413 -39.165736 -10.420367 -16.440762 0.000000 0.000000 0.000000 3.562388 17.816727 15.943652 7.520992 -5.663445 -4.382559 0.000000 0.000000 0.000000 5.840215 2.793167 0.921487 55.120612 12.893339 -2.733753 11.592828 20.508838 1.109465 5.268084 3.915641 7.140223 20.107373 -4.155823 1.348589 25.408284 -14.468812 15.433750 0.000000 0.000000 0.000000 27.976847 -2.099741 -4.298638 32.468329 0.389201 -8.485638 0.000000 0.000000 0.000000 16.781382 15.363827 -20.175341 42.832536 2.260672 -2.455875 0.000000 0.000000 0.000000 31.826814 8.528354 -5.843465 32.214669 2.105623 -4.133493 0.000000 0.000000 0.000000 -6.980865 -33.316510 33.691458 -5.030263 15.949081 -7.390979 0.000000 0.000000 0.000000 
0.039011 0.938522 0.000587 -0.248426 -3.551912 -5.703596 3.038536 0.025122 0.391441 -0.644651 -0.557491 6.131840 1.238633 3.131369 0.865391 0.000000 0.000000 0.000000 -4.497501 0.444738 -2.946462 6.763151 -0.519169 14.210480 -1.312194 -0.433899 -3.184911 0.000000 0.000000 0.000000 -1.936783 -0.747531 11.386369 -7.797035 -1.198069 -18.660508 7.945532 -2.419680 26.542931 5.105464 0.962477 -10.097401 0.000000 0.000000 0.000000 -4.711411 0.068172 -0.268002 -52.744978 -10.747135 -6.895016 -5.163504 -33.536216 5.343416 2.216143 -1.870771 1.458830 -14.460108 5.924208 1.896220 -1.031573 6.439363 20.492395 0.000000 0.000000 0.000000 -14.480031 1.906810 -1.543089 -19.317582 5.243636 9.397600 0.000000 0.000000 0.000000 3.067079 -7.161557 -7.800434 -27.149534 -7.014694 -14.203927 0.000000 0.000000 0.000000 -12.340991 -0.434885 -1.107492 -31.120793 -6.472101 -10.751195 0.000000 0.000000 0.000000 14.451318 28.389118 24.768406 -6.913833 -17.635325 -3.081882 0.000000 0.000000 0.000000 6.593326 3.601647 1.145885 55.743565 11.266370 -3.810501 10.358980 23.501704 1.160799 5.891200 3.904905 11.530336 21.751875 -3.125561 0.759176 15.848998 -8.567731 9.672000 0.000000 0.000000 0.000000 25.351864 3.032502 -5.892019 24.072342 -0.061704 -8.210537 0.000000 0.000000 0.000000 6.041936 22.328553 -23.663262 39.310026 2.929369 -5.451192 0.000000 0.000000 0.000000 24.484787 11.287308 -7.088952 30.768703 2.189208 -7.263126 0.000000 0.000000 0.000000 -7.249238 -30.275029 30.429124 -0.718544 18.356264 -6.231936 0.000000 0.000000 0.000000 
